<svg xmlns="http://www.w3.org/2000/svg" viewBox="6 27 100 92" width="120" height="110">
  <!-- Box base -->
  <path d="M15 58 L60 78 L105 58 L105 95 L60 115 L15 95Z" fill="#c0392b"/>
  <path d="M60 78 L60 115 L105 95 L105 58Z" fill="#a93226"/>
  <!-- Green band on box -->
  <path d="M15 68 L60 88 L60 82 L15 62Z" fill="#27ae60"/>
  <path d="M60 88 L105 68 L105 62 L60 82Z" fill="#1e8449"/>
  <!-- Box lid (open, tilted back) -->
  <path d="M10 56 L55 36 L100 56 L55 66Z" fill="#e74c3c"/>
  <path d="M55 36 L100 56 L100 50 L55 30Z" fill="#c0392b"/>
  <!-- Green band on lid -->
  <path d="M10 56 L55 46 L100 56 L55 58Z" fill="#2ecc71"/>
  <!-- Bowl -->
  <ellipse cx="58" cy="62" rx="22" ry="8" fill="#f5f5f5"/>
  <path d="M36 62 Q38 82 58 82 Q78 82 80 62Z" fill="#ecf0f1"/>
  <path d="M40 62 Q42 78 58 78 Q74 78 76 62Z" fill="#fff"/>
  <!-- Soup inside bowl -->
  <ellipse cx="58" cy="62" rx="18" ry="6" fill="#27ae60" opacity="0.7"/>
  <!-- Spoon -->
  <line x1="48" y1="68" x2="32" y2="48" stroke="#f1c40f" stroke-width="3" stroke-linecap="round"/>
  <ellipse cx="48" cy="68" rx="5" ry="3" fill="#f39c12" transform="rotate(-15 48 68)"/>
  <!-- Steam -->
  <path d="M50 52 Q48 44 52 38" fill="none" stroke="#bdc3c7" stroke-width="2" stroke-linecap="round" opacity="0.6"/>
  <path d="M58 50 Q56 42 60 34" fill="none" stroke="#bdc3c7" stroke-width="2" stroke-linecap="round" opacity="0.6"/>
  <path d="M66 52 Q64 44 68 38" fill="none" stroke="#bdc3c7" stroke-width="2" stroke-linecap="round" opacity="0.6"/>
</svg>
