<svg xmlns="http://www.w3.org/2000/svg" viewBox="0 0 1200 1200" role="img" aria-labelledby="title desc">
  <title id="title">Brinco gota</title>
  <desc id="desc">Card ilustrado de brincos em formato de gota</desc>
  <defs>
    <linearGradient id="bg" x1="0%" y1="0%" x2="100%" y2="100%">
      <stop offset="0%" stop-color="#fff8ef"/>
      <stop offset="100%" stop-color="#eadbc6"/>
    </linearGradient>
    <linearGradient id="gold" x1="0%" y1="0%" x2="100%" y2="100%">
      <stop offset="0%" stop-color="#f1ddb6"/>
      <stop offset="50%" stop-color="#cb9b45"/>
      <stop offset="100%" stop-color="#8d6725"/>
    </linearGradient>
  </defs>
  <rect width="1200" height="1200" fill="url(#bg)"/>
  <circle cx="600" cy="420" r="250" fill="#fffdf8" opacity=".82"/>
  <circle cx="480" cy="392" r="24" fill="#ffffff" stroke="#d7b874" stroke-width="10"/>
  <circle cx="720" cy="392" r="24" fill="#ffffff" stroke="#d7b874" stroke-width="10"/>
  <path d="M480 416v44" fill="none" stroke="url(#gold)" stroke-linecap="round" stroke-width="10"/>
  <path d="M720 416v44" fill="none" stroke="url(#gold)" stroke-linecap="round" stroke-width="10"/>
  <path d="m480 462 40 62c0 38-30 66-40 74-10-8-40-36-40-74z" fill="#ffffff" stroke="#caa85f" stroke-width="10"/>
  <path d="m720 462 40 62c0 38-30 66-40 74-10-8-40-36-40-74z" fill="#ffffff" stroke="#caa85f" stroke-width="10"/>
  <text x="600" y="935" text-anchor="middle" fill="#6f531e" font-family="Georgia, serif" font-size="64" letter-spacing="7">BRINCO GOTA</text>
  <text x="600" y="996" text-anchor="middle" fill="#897867" font-family="'Plus Jakarta Sans', Arial, sans-serif" font-size="28" letter-spacing="8">BRILHO SOFISTICADO</text>
</svg>
