<svg xmlns="http://www.w3.org/2000/svg" viewBox="129.1563 206.6093 761 266.9003">
    <style>
        :root {
            --logo-text: #0f0f0f;
            --logo-primary: #a92d20;
            --logo-secondary: #145f45;
            --logo-accent: #b88412;
        }

        .logo-base {
            fill: var(--logo-text);
        }

        .logo-primary {
            fill: var(--logo-primary);
        }

        .logo-secondary {
            fill: var(--logo-secondary);
        }

        .logo-accent {
            fill: var(--logo-accent);
        }
    </style>
    <g class="logo-base" transform="matrix(0.10000000149011612, 0, 0, -0.10000000149011612, 13.15631580352786, 870.5096435546875)"
        stroke="none">
        <path
            d="M2925 6589 c-220 -46 -629 -121 -1134 -209 -129 -23 -243 -46 -255 -52 -30 -16 -43 -34 -77 -108 -67 -144 -299 -691 -299 -706 0 -8 17 -35 37 -60 32 -37 43 -44 74 -44 51 0 1002 141 1122 166 35 7 34 20 -5 80 -27 39 -33 59 -33 101 0 46 4 56 34 85 31 31 33 32 25 8 -19 -54 -10 -105 28 -161 20 -30 39 -65 43 -78 6 -20 12 -22 37 -17 17 3 44 6 60 6 28 0 30 2 23 28 -3 15 -17 45 -30 67 -48 79 -85 160 -85 185 0 57 23 106 71 153 27 26 53 47 58 47 5 0 -2 -20 -16 -46 -21 -37 -25 -55 -21 -102 3 -47 12 -68 47 -120 51 -76 71 -121 71 -163 l0 -32 47 7 c74 10 74 4 -4 149 -24 46 -12 113 27 151 l32 31 -8 -30 c-15 -57 -8 -93 30 -155 21 -34 41 -73 45 -88 8 -30 0 -29 134 -16 93 8 68 -25 247 330 l132 261 79 17 c69 15 81 21 94 46 8 16 15 37 15 47 -1 26 -354 273 -389 272 -14 -1 -129 -23 -256 -50z m320 -63 l30 -24 -40 -10 c-78 -21 -632 -98 -640 -90 -3 2 120 32 273 67 152 34 288 66 302 71 38 13 43 12 75 -14z m104 -77 c13 -11 22 -21 20 -23 -11 -9 -618 -110 -625 -104 -2 3 110 33 249 68 138 34 261 66 272 71 33 13 59 9 84 -12z m-1306 -254 c98 -82 116 -103 72 -83 -14 6 -25 15 -25 20 0 5 -10 12 -22 17 -19 7 -25 3 -37 -21 -7 -16 -16 -26 -19 -23 -3 2 -12 -4 -21 -14 -18 -20 -71 -37 -71 -22 0 5 -43 43 -95 86 -52 42 -95 81 -95 86 0 4 17 11 38 14 20 4 55 10 77 15 80 17 97 10 198 -75z m-106 -177 c-3 -7 -5 -2 -5 12 0 14 2 19 5 13 2 -7 2 -19 0 -25z m10 -50 c-3 -8 -6 -5 -6 6 -1 11 2 17 5 13 3 -3 4 -12 1 -19z m220 0 c-3 -8 -6 -5 -6 6 -1 11 2 17 5 13 3 -3 4 -12 1 -19z m-210 -50 c-3 -7 -5 -2 -5 12 0 14 2 19 5 13 2 -7 2 -19 0 -25z m113 -20 c0 -10 -4 -18 -10 -18 -5 0 -10 2 -10 4 0 2 -2 11 -5 19 -4 8 0 14 10 14 8 0 15 -9 15 -19z m17 0 c-3 -8 -6 -5 -6 6 -1 11 2 17 5 13 3 -3 4 -12 1 -19z m68 4 c-3 -3 -11 0 -18 7 -9 10 -8 11 6 5 10 -3 15 -9 12 -12z"
            class="logo-primary" />
        <path
            d="M3414 5776 c-11 -8 -34 -32 -49 -52 -24 -31 -25 -36 -9 -30 10 4 24 9 29 10 6 2 19 7 29 11 13 6 23 3 32 -10 13 -17 14 -17 14 -2 0 10 -10 22 -22 27 -14 5 -17 9 -8 10 13 0 13 2 0 9 -8 6 -19 7 -25 5 -5 -3 -1 2 10 11 11 9 32 15 47 12 15 -2 25 0 22 5 -8 13 -48 9 -70 -6z m-4 -52 c0 -8 -19 -13 -24 -6 -3 5 1 9 9 9 8 0 15 -2 15 -3z" />
        <path
            d="M3404 5678 c-19 -22 -48 -78 -40 -78 2 0 15 17 27 38 13 20 27 43 32 50 13 20 2 14 -19 -10z" />
        <path d="M3415 5660 c-27 -30 -12 -34 15 -5 13 14 19 25 13 25 -5 0 -18 -9 -28 -20z" />
        <path
            d="M3475 5660 c-4 -6 -11 -8 -17 -4 -11 7 -68 -44 -68 -62 0 -11 -46 -47 -54 -42 -8 6 -65 -62 -84 -99 -11 -21 -55 -73 -97 -116 -42 -42 -72 -77 -67 -77 5 0 15 7 22 15 7 8 19 15 27 15 24 0 86 -37 116 -68 38 -39 43 -83 18 -162 -11 -35 -19 -65 -18 -67 5 -5 386 313 385 322 0 6 -64 42 -141 80 -78 39 -146 78 -151 87 -9 15 -1 28 44 75 75 78 105 113 97 113 -3 0 -9 -5 -12 -10z m-75 -84 c0 -2 -8 -10 -17 -17 -16 -13 -17 -12 -4 4 13 16 21 21 21 13z"
            class="logo-secondary" />
        <path
            d="M2914 5609 c-33 -8 -48 -19 -68 -49 -14 -22 -40 -47 -57 -55 l-31 -16 20 28 c19 27 38 83 28 83 -3 0 -28 -5 -56 -11 -39 -8 -54 -17 -65 -39 -27 -51 -125 -133 -142 -117 -2 3 10 31 26 63 17 31 30 59 28 61 -2 2 -27 -2 -56 -9 -41 -9 -55 -18 -70 -44 -11 -18 -33 -40 -50 -49 -35 -18 -38 -14 -15 20 9 13 14 30 12 38 -3 14 -28 10 -850 -125 -76 -12 -138 -25 -138 -28 0 -3 19 -17 43 -31 23 -15 150 -93 282 -174 340 -209 366 -224 425 -235 60 -11 75 -7 36 12 -15 6 -33 23 -40 36 -8 15 -32 31 -65 43 -159 55 -215 137 -145 210 58 62 207 116 384 140 188 25 567 10 671 -26 32 -12 40 -11 56 1 10 9 11 12 3 8 -13 -7 73 108 128 171 47 53 60 73 30 47 -31 -28 -40 -26 -139 24 -70 36 -107 40 -185 23z"
            class="logo-secondary" />
        <path
            d="M4105 5584 c-22 -2 -63 -6 -91 -10 l-51 -5 -9 -352 c-5 -194 -9 -383 -9 -422 l0 -70 82 -3 82 -3 3 148 3 148 46 3 c44 3 48 1 66 -30 11 -18 51 -86 89 -150 l69 -118 92 0 c53 0 93 4 93 10 0 5 -45 76 -100 159 -55 82 -100 153 -100 159 0 5 18 21 41 36 54 36 94 103 109 181 28 148 -35 259 -171 299 -52 16 -180 26 -244 20z m184 -147 c44 -22 66 -63 66 -125 0 -108 -55 -164 -165 -170 l-70 -4 0 125 c0 154 5 184 34 190 30 7 107 -3 135 -16z"
            class="logo-primary" />
        <path
            d="M7161 5570 c-46 -5 -86 -11 -89 -15 -6 -6 -23 -817 -17 -823 10 -10 212 -22 280 -16 152 12 232 53 272 139 26 58 31 147 9 198 -18 43 -67 84 -117 97 l-41 11 53 32 c68 41 93 88 92 172 -1 135 -82 196 -274 208 -46 3 -122 1 -168 -3z m212 -131 c50 -14 80 -59 73 -112 -9 -81 -61 -117 -166 -117 l-60 0 0 113 c0 63 3 117 7 120 10 11 104 8 146 -4z m6 -355 c61 -18 91 -56 91 -117 0 -87 -57 -131 -172 -131 -38 0 -73 5 -79 11 -8 8 -9 46 -4 127 l7 115 41 4 c23 2 47 4 53 5 6 1 34 -5 63 -14z"
            class="logo-secondary" />
        <path d="M5690 5549 c-60 -24 -82 -76 -56 -127 31 -59 134 -61 165 -4 41 76 -31 163 -109 131z"
            class="logo-primary" />
        <path
            d="M1290 4890 l0 -470 38 -23 c37 -24 520 -292 683 -381 47 -25 98 -46 114 -46 43 0 310 47 520 91 313 66 622 148 948 250 l127 40 0 475 c0 274 -4 473 -9 470 -5 -3 -92 -72 -194 -153 -491 -392 -527 -419 -571 -415 -50 5 -251 39 -550 93 l-279 51 -241 146 c-133 80 -270 162 -306 182 -138 79 -188 108 -226 134 -21 14 -42 26 -46 26 -5 0 -8 -211 -8 -470z m1442 -225 c84 -16 148 -39 148 -53 0 -19 -14 -21 -49 -6 -20 9 -70 29 -111 45 -41 15 -73 28 -70 29 3 0 40 -7 82 -15z m260 -230 c2 -118 1 -215 -2 -215 -3 0 -15 -3 -27 -6 l-23 -6 0 144 c0 80 3 179 6 221 6 65 10 77 25 77 17 0 18 -15 21 -215z"
            class="logo-primary" />
        <path
            d="M2430 5311 c-283 -30 -459 -121 -383 -197 99 -98 619 -152 903 -94 141 29 250 85 250 129 0 22 -33 53 -87 80 l-43 21 -40 -40 c-33 -33 -39 -45 -34 -65 15 -60 16 -60 -81 -66 -49 -4 -103 -12 -118 -18 -30 -12 -118 -15 -154 -5 -32 9 -29 39 6 63 16 12 32 21 37 21 4 0 32 12 62 26 50 24 63 26 131 20 l76 -7 40 53 c54 70 63 88 32 59 -14 -12 -31 -20 -37 -16 -44 27 -415 51 -560 36z"
            class="logo-accent" />
        <path
            d="M4813 5290 c-56 -12 -91 -31 -136 -77 -77 -76 -109 -186 -88 -303 21 -116 83 -177 198 -196 76 -12 235 29 258 67 4 6 -1 28 -10 49 l-18 39 -36 -19 c-52 -26 -122 -34 -166 -20 -39 13 -75 59 -75 98 0 19 5 22 43 22 67 1 159 24 209 53 91 53 105 162 31 239 -41 43 -132 64 -210 48z m100 -122 c21 -25 22 -47 1 -76 -22 -31 -49 -44 -116 -51 -58 -7 -58 -7 -58 19 0 14 10 46 23 70 34 68 107 87 150 38z"
            class="logo-primary" />
        <path
            d="M5341 5289 c-140 -28 -226 -146 -226 -309 0 -89 16 -139 58 -186 51 -59 100 -79 187 -77 85 2 190 35 190 59 0 17 -27 84 -33 84 -3 0 -21 -7 -40 -15 -43 -18 -106 -19 -141 -3 -37 16 -66 83 -66 149 0 75 15 120 51 155 26 25 38 29 87 29 31 0 69 -3 83 -7 23 -7 27 -3 47 43 l21 50 -32 14 c-45 18 -134 25 -186 14z"
            class="logo-primary" />
        <path
            d="M6155 5291 c-41 -10 -75 -29 -106 -58 l-26 -24 -7 40 -6 41 -63 -7 c-34 -3 -63 -6 -64 -7 0 -1 -5 -180 -9 -398 l-7 -398 77 0 76 0 0 119 0 119 73 -1 c169 -2 281 113 294 303 12 164 -44 257 -162 273 -22 3 -53 2 -70 -2z m46 -137 c21 -22 24 -37 27 -108 7 -147 -35 -226 -118 -226 -79 0 -80 3 -80 156 l0 136 34 34 c44 44 100 48 137 8z"
            class="logo-primary" />
        <path
            d="M6657 5286 c-107 -29 -184 -119 -207 -241 -41 -219 96 -364 309 -325 70 13 151 48 151 66 0 20 -30 86 -38 82 -124 -65 -220 -59 -256 17 -27 57 -24 61 58 68 91 8 176 39 215 78 72 72 39 210 -59 247 -48 18 -124 21 -173 8z m103 -106 c26 -14 34 -57 15 -87 -19 -29 -62 -48 -127 -56 l-48 -7 0 33 c0 33 31 93 59 114 19 15 75 17 101 3z"
            class="logo-primary" />
        <path
            d="M7895 5281 c-112 -28 -192 -133 -203 -267 -9 -120 40 -234 120 -276 60 -31 194 -32 253 -1 46 24 96 75 118 118 39 79 46 221 13 298 -42 101 -176 158 -301 128z m117 -112 c32 -17 48 -71 48 -164 0 -97 -14 -141 -55 -173 -32 -26 -55 -27 -94 -7 -44 22 -61 70 -61 169 0 96 15 144 51 170 27 18 81 21 111 5z"
            class="logo-secondary" />
        <path
            d="M5630 5000 l0 -280 58 0 c31 0 62 4 69 8 7 5 13 69 17 192 4 102 9 224 12 273 l6 87 -81 0 -81 0 0 -280z"
            class="logo-primary" />
        <path
            d="M8305 5155 c90 -137 101 -160 88 -177 -102 -136 -183 -247 -183 -252 0 -3 31 -6 70 -6 l69 0 61 90 c33 50 64 90 68 90 4 -1 30 -40 57 -88 l50 -87 88 -3 c48 -1 87 0 87 3 0 4 -36 62 -80 130 -44 68 -83 131 -86 139 -7 17 29 72 144 223 18 23 32 44 32 47 0 3 -33 6 -73 6 l-72 0 -54 -85 c-30 -47 -57 -85 -60 -85 -3 0 -26 38 -51 85 l-45 85 -92 0 -92 0 74 -115z"
            class="logo-secondary" />
    </g>
</svg>


